RobotoAvar2-VANG13-opsz144-wght100.ufo
<glyph name="P" format="2">
  <advance width="1200"/>
  <unicode hex="0050"/>
  <anchor x="432.0" y="0" name="bottom"/>
  <anchor x="768.1440862788199" y="1456" name="top"/>
  <outline>
    <contour>
      <point x="2.0" y="0.0" type="line"/>
      <point x="338.1440862788199" y="1456.0" type="line"/>
      <point x="820.1440862788199" y="1456.0" type="line" smooth="yes"/>
      <point x="1060.14408627882" y="1456.0"/>
      <point x="1262.5048522175591" y="1215.0"/>
      <point x="1216.3312139924465" y="1015.0" type="qcurve" smooth="yes"/>
      <point x="1170.157575767334" y="815.0"/>
      <point x="855.594868941571" y="570.0"/>
      <point x="615.594868941571" y="570.0" type="qcurve" smooth="yes"/>
      <point x="229.594868941571" y="570.0" type="line"/>
      <point x="266.07204313940997" y="728.0" type="line"/>
      <point x="652.07204313941" y="728.0" type="line" smooth="yes"/>
      <point x="822.07204313941" y="728.0"/>
      <point x="996.6270310573791" y="895.0"/>
      <point x="1024.3312139924465" y="1015.0" type="qcurve" smooth="yes"/>
      <point x="1052.035396927514" y="1135.0"/>
      <point x="953.6669120809809" y="1298.0"/>
      <point x="783.6669120809809" y="1298.0" type="qcurve" smooth="yes"/>
      <point x="493.66691208098086" y="1298.0" type="line"/>
      <point x="194.0" y="0.0" type="line"/>
    </contour>
  </outline>
</glyph>
<glyph name="e" format="2">
  <advance width="1088"/>
  <unicode hex="0065"/>
  <anchor x="422.0" y="0" name="bottom"/>
  <anchor x="603.0" y="0" name="ogonek"/>
  <anchor x="634.8733370640924" y="1052" name="top"/>
  <outline>
    <contour>
      <point x="34.74277747403718" y="510.0" type="qcurve" smooth="yes"/>
      <point x="42.13055959005521" y="542.0" type="line" smooth="yes"/>
      <point x="97.07718907793924" y="780.0"/>
      <point x="427.79938279785927" y="1082.0"/>
      <point x="642.7993827978593" y="1082.0" type="qcurve" smooth="yes"/>
      <point x="857.7993827978594" y="1082.0"/>
      <point x="1024.6945529004506" y="800.0"/>
      <point x="969.2861870303154" y="560.0" type="qcurve" smooth="yes"/>
      <point x="951.7402045047725" y="484.0" type="line"/>
      <point x="123.74020450477258" y="484.0" type="line"/>
      <point x="157.90869679135585" y="632.0" type="line"/>
      <point x="798.9086967913559" y="632.0" type="line"/>
      <point x="804.4495333783694" y="656.0" type="line" smooth="yes"/>
      <point x="830.7685071666835" y="770.0"/>
      <point x="737.7074177467737" y="930.0"/>
      <point x="615.7074177467737" y="930.0" type="qcurve" smooth="yes"/>
      <point x="467.7074177467737" y="930.0"/>
      <point x="269.762074743522" y="705.0"/>
      <point x="232.1305595900552" y="542.0" type="qcurve" smooth="yes"/>
      <point x="224.7427774740372" y="510.0" type="line" smooth="yes"/>
      <point x="187.1112623205704" y="347.0"/>
      <point x="289.1659193173187" y="122.0"/>
      <point x="451.16591931731875" y="122.0" type="qcurve" smooth="yes"/>
      <point x="551.1659193173188" y="122.0"/>
      <point x="715.4823201363682" y="210.0"/>
      <point x="774.334411603902" y="270.0" type="qcurve"/>
      <point x="872.4019334469735" y="175.0" type="line"/>
      <point x="805.0868191125563" y="100.0"/>
      <point x="566.0739542662332" y="-30.0"/>
      <point x="416.07395426623316" y="-30.0" type="qcurve" smooth="yes"/>
      <point x="171.0739542662331" y="-30.0"/>
      <point x="-20.20385201384684" y="272.0"/>
    </contour>
  </outline>
</glyph>
<glyph name="h" format="2">
  <advance width="1138"/>
  <unicode hex="0068"/>
  <anchor x="401.0" y="0" name="bottom"/>
  <anchor x="445.89520730284187" y="1273" name="center"/>
  <anchor x="409.14408627881994" y="1456" name="top"/>
  <anchor x="739.0" y="0" name="engtail"/>
  <outline>
    <contour>
      <point x="166.0" y="0.0" type="line"/>
      <point x="-20.0" y="0.0" type="line"/>
      <point x="316.1440862788199" y="1456.0" type="line"/>
      <point x="502.14408627881994" y="1456.0" type="line"/>
    </contour>
    <contour>
      <point x="254.69326641581813" y="787.0" type="line"/>
      <point x="368.5543632757782" y="938.0"/>
      <point x="613.4907008866037" y="1072.0"/>
      <point x="743.4907008866037" y="1072.0" type="qcurve" smooth="yes"/>
      <point x="890.4907008866037" y="1072.0"/>
      <point x="1037.7035582928768" y="891.0"/>
      <point x="988.7595017742574" y="679.0" type="qcurve" smooth="yes"/>
      <point x="832.0" y="0.0" type="line"/>
      <point x="646.0" y="0.0" type="line"/>
      <point x="803.2212381565084" y="681.0" type="line" smooth="yes"/>
      <point x="832.3106302383294" y="807.0"/>
      <point x="744.4752630710158" y="916.0"/>
      <point x="640.4752630710158" y="916.0" type="qcurve" smooth="yes"/>
      <point x="533.4752630710158" y="916.0"/>
      <point x="335.9993753578092" y="771.0"/>
      <point x="206.67268266170106" y="579.0" type="qcurve"/>
    </contour>
  </outline>
</glyph>
<glyph name="k" format="2">
  <advance width="1028"/>
  <unicode hex="006B"/>
  <anchor x="346.0" y="0" name="bottom"/>
  <anchor x="682.1440862788199" y="1456" name="top"/>
  <outline>
    <contour>
      <point x="-20.0" y="0.0" type="line"/>
      <point x="316.1440862788199" y="1456.0" type="line"/>
      <point x="502.14408627881994" y="1456.0" type="line"/>
      <point x="166.0" y="0.0" type="line"/>
    </contour>
    <contour>
      <point x="657.7691318088745" y="-1.0" type="line"/>
      <point x="373.36142778118074" y="543.0" type="line"/>
      <point x="518.9125562452529" y="671.0" type="line"/>
      <point x="875.7691318088744" y="-1.0" type="line"/>
    </contour>
    <contour>
      <point x="132.5639933103953" y="258.0" type="line"/>
      <point x="182.89325897576805" y="476.0" type="line"/>
      <point x="858.8733370640923" y="1052.0" type="line"/>
      <point x="1069.8733370640923" y="1052.0" type="line"/>
    </contour>
  </outline>
</glyph>
<glyph name="s" format="2">
  <advance width="1010"/>
  <unicode hex="0073"/>
  <anchor x="337.0" y="0" name="bottom"/>
  <anchor x="579.8733370640924" y="1052" name="top"/>
  <outline>
    <contour>
      <point x="-16.430860751075443" y="310.0" type="line"/>
      <point x="169.56913924892456" y="310.0" type="line"/>
      <point x="168.41479829329677" y="305.0" type="line" smooth="yes"/>
      <point x="147.4057929008705" y="214.0"/>
      <point x="260.1659193173187" y="122.0"/>
      <point x="370.16591931731875" y="122.0" type="qcurve" smooth="yes"/>
      <point x="480.16591931731875" y="122.0"/>
      <point x="627.4823201363682" y="210.0"/>
      <point x="643.6430935151577" y="280.0" type="qcurve" smooth="yes"/>
      <point x="659.8038668939471" y="350.0"/>
      <point x="575.1189812283643" y="425.0"/>
      <point x="414.35370887338684" y="465.0" type="qcurve" smooth="yes"/>
      <point x="253.58843651840937" y="505.0"/>
      <point x="87.06432423161601" y="650.0"/>
      <point x="117.07718907793924" y="780.0" type="qcurve" smooth="yes"/>
      <point x="147.0900539242624" y="910.0"/>
      <point x="401.79938279785927" y="1082.0"/>
      <point x="581.7993827978593" y="1082.0" type="qcurve" smooth="yes"/>
      <point x="761.7993827978593" y="1082.0"/>
      <point x="942.3209221153879" y="911.0"/>
      <point x="908.6141662110558" y="765.0" type="qcurve" smooth="yes"/>
      <point x="907.4598252554279" y="760.0" type="line"/>
      <point x="722.459825255428" y="760.0" type="line"/>
      <point x="724.537638975558" y="769.0" type="line" smooth="yes"/>
      <point x="741.8527533099752" y="844.0"/>
      <point x="656.7074177467737" y="930.0"/>
      <point x="546.7074177467737" y="930.0" type="qcurve" smooth="yes"/>
      <point x="436.7074177467737" y="930.0"/>
      <point x="317.2379624567286" y="850.0"/>
      <point x="303.38587098919487" y="790.0" type="qcurve" smooth="yes"/>
      <point x="289.5337795216611" y="730.0"/>
      <point x="389.37300614287165" y="660.0"/>
      <point x="550.1382784978491" y="620.0" type="qcurve" smooth="yes"/>
      <point x="710.9035508528266" y="580.0"/>
      <point x="861.2733221839921" y="430.0"/>
      <point x="828.9517754264133" y="290.0" type="qcurve" smooth="yes"/>
      <point x="796.6302286688344" y="150.0"/>
      <point x="545.0739542662332" y="-30.0"/>
      <point x="335.0739542662331" y="-30.0" type="qcurve" smooth="yes"/>
      <point x="125.0739542662331" y="-30.0"/>
      <point x="-52.677166757788854" y="153.0"/>
      <point x="-17.58520170670323" y="305.0" type="qcurve" smooth="yes"/>
    </contour>
  </outline>
</glyph>
<glyph name="v" format="2">
  <advance width="942"/>
  <unicode hex="0076"/>
  <anchor x="303.0" y="0" name="bottom"/>
  <anchor x="545.8733370640924" y="1052" name="top"/>
  <outline>
    <contour>
      <point x="74.8733370640924" y="1052.0" type="line"/>
      <point x="255" y="1052" type="line"/>
      <point x="302" y="350" type="line" smooth="yes"/>
      <point x="305" y="310"/>
      <point x="305" y="240"/>
      <point x="305" y="220" type="qcurve"/>
      <point x="311" y="220" type="line"/>
      <point x="322" y="240"/>
      <point x="360" y="311"/>
      <point x="385" y="350" type="qcurve" smooth="yes"/>
      <point x="841" y="1052" type="line"/>
      <point x="1016.8733370640923" y="1052.0" type="line"/>
      <point x="374.0" y="0.0" type="line"/>
      <point x="232.0" y="0.0" type="line"/>
    </contour>
  </outline>
</glyph>
<glyph name="w" format="2">
  <advance width="1546"/>
  <unicode hex="0077"/>
  <anchor x="605.0" y="0" name="bottom"/>
  <anchor x="847.8733370640924" y="1052" name="top"/>
  <outline>
    <contour>
      <point x="99.87333706409242" y="1052.0" type="line"/>
      <point x="280" y="1052" type="line"/>
      <point x="315" y="360" type="line" smooth="yes"/>
      <point x="316" y="320"/>
      <point x="318" y="270"/>
      <point x="317" y="230" type="qcurve"/>
      <point x="323" y="230" type="line"/>
      <point x="340" y="270"/>
      <point x="364" y="320"/>
      <point x="387" y="360" type="qcurve" smooth="yes"/>
      <point x="775" y="1052" type="line"/>
      <point x="931" y="1052" type="line"/>
      <point x="1008" y="360" type="line" smooth="yes"/>
      <point x="1012" y="320"/>
      <point x="1014" y="270"/>
      <point x="1013" y="230" type="qcurve"/>
      <point x="1019" y="230" type="line"/>
      <point x="1036" y="270"/>
      <point x="1058" y="320"/>
      <point x="1079" y="360" type="qcurve" smooth="yes"/>
      <point x="1426" y="1052" type="line"/>
      <point x="1595.8733370640923" y="1052.0" type="line"/>
      <point x="1028.0" y="0.0" type="line"/>
      <point x="883.0" y="0.0" type="line"/>
      <point x="810.9903699653829" y="680.0" type="line" smooth="yes"/>
      <point x="807.2250976104054" y="720.0"/>
      <point x="802.6945529004505" y="800.0"/>
      <point x="801.929280545473" y="840.0" type="qcurve"/>
      <point x="795.929280545473" y="840.0" type="line"/>
      <point x="776.6945529004505" y="800.0"/>
      <point x="735.2250976104054" y="720.0"/>
      <point x="712.9903699653829" y="680.0" type="qcurve" smooth="yes"/>
      <point x="327.0" y="0.0" type="line"/>
      <point x="182.0" y="0.0" type="line"/>
    </contour>
  </outline>
</glyph>
<glyph name="thorn" format="2">
  <advance width="1170"/>
  <unicode hex="00FE"/>
  <outline>
    <contour>
      <point x="69.95883249176575" y="-416.0" type="line"/>
      <point x="-116.04116750823425" y="-416.0" type="line"/>
      <point x="316.1440862788199" y="1456.0" type="line"/>
      <point x="502.14408627881994" y="1456.0" type="line"/>
      <point x="380.2456813645226" y="928.0" type="line"/>
    </contour>
    <contour>
      <point x="467.47460122857433" y="132.0" type="qcurve" smooth="yes"/>
      <point x="617.4746012285743" y="132.0"/>
      <point x="807.8038668939471" y="350.0"/>
      <point x="844.7427774740372" y="510.0" type="qcurve" smooth="yes"/>
      <point x="852.1305595900552" y="542.0" type="line" smooth="yes"/>
      <point x="889.0694701701452" y="702.0"/>
      <point x="799.3987358355181" y="920.0"/>
      <point x="649.3987358355181" y="920.0" type="qcurve" smooth="yes"/>
      <point x="508.3987358355181" y="920.0"/>
      <point x="284.145997405643" y="698.0"/>
      <point x="249.74663692793416" y="549.0" type="qcurve" smooth="yes"/>
      <point x="243.28232757641837" y="521.0" type="line" smooth="yes"/>
      <point x="203.34213051169598" y="348.0"/>
      <point x="331.47460122857433" y="132.0"/>
    </contour>
    <contour>
      <point x="472.38263617748873" y="-20.0" type="qcurve" smooth="yes"/>
      <point x="279.38263617748873" y="-20.0"/>
      <point x="117.18007064827424" y="265.0"/>
      <point x="176.0514593852928" y="520.0" type="qcurve" smooth="yes"/>
      <point x="183.90097788356195" y="554.0" type="line" smooth="yes"/>
      <point x="232.61416621105582" y="765.0"/>
      <point x="520.4907008866037" y="1072.0"/>
      <point x="724.4907008866037" y="1072.0" type="qcurve" smooth="yes"/>
      <point x="924.4907008866037" y="1072.0"/>
      <point x="1095.2302435489348" y="772.0"/>
      <point x="1042.1305595900553" y="542.0" type="qcurve" smooth="yes"/>
      <point x="1034.7427774740372" y="510.0" type="line" smooth="yes"/>
      <point x="981.6430935151577" y="280.0"/>
      <point x="672.3826361774887" y="-20.0"/>
    </contour>
  </outline>
</glyph>
<glyph name="kgreenlandic" format="2">
  <advance width="1072"/>
  <unicode hex="0138"/>
  <outline>
    <contour>
      <point x="414.8733370640924" y="1052.0" type="line"/>
      <point x="172.0" y="0.0" type="line"/>
      <point x="-13.0" y="0.0" type="line"/>
      <point x="229.87333706409242" y="1052.0" type="line"/>
    </contour>
    <contour>
      <point x="1101.8733370640923" y="1052.0" type="line"/>
      <point x="455.66110430001015" y="462.0" type="line"/>
      <point x="188.66110430001015" y="462.0" type="line"/>
      <point x="226.06175126235138" y="624.0" type="line"/>
      <point x="408.06175126235144" y="624.0" type="line"/>
      <point x="877.8733370640923" y="1052.0" type="line"/>
    </contour>
    <contour>
      <point x="686.0" y="0.0" type="line"/>
      <point x="368.12541365152595" y="490.0" type="line"/>
      <point x="518.0617512623514" y="624.0" type="line"/>
      <point x="920.0" y="0.0" type="line"/>
    </contour>
  </outline>
</glyph>
<glyph name="caroncomb" format="2">
  <unicode hex="030C"/>
  <anchor x="74.8733370640924" y="1052" name="_top"/>
  <anchor x="185.92093699548826" y="1533" name="top"/>
  <outline>
    <contour>
      <point x="56.04311583530807" y="1213.0" type="line"/>
      <point x="-118.69514034239069" y="1526.0" type="line"/>
      <point x="35.30485965760931" y="1526.0" type="line"/>
      <point x="147.59681726864477" y="1367.0" type="line"/>
      <point x="335.3048596576093" y="1526.0" type="line"/>
      <point x="487.3048596576093" y="1526.0" type="line"/>
      <point x="168.04311583530807" y="1213.0" type="line"/>
    </contour>
  </outline>
</glyph>
<glyph name="commaaccentturnedcomb" format="2">
  <unicode hex="0312"/>
  <anchor x="74.8733370640924" y="1052" name="_top"/>
  <outline>
    <contour>
      <point x="376.3942517394303" y="1652.0" type="line"/>
      <point x="208.05083474310197" y="1291.0" type="line"/>
      <point x="20.591671330115503" y="1315.0" type="line"/>
      <point x="224.9350883264438" y="1676.0" type="line"/>
    </contour>
  </outline>
</glyph>
<glyph name="Pi" format="2">
  <advance width="1438"/>
  <unicode hex="03A0"/>
  <outline>
    <contour>
      <point x="2.0" y="0.0" type="line"/>
      <point x="338.1440862788199" y="1456.0" type="line"/>
      <point x="1436.14408627882" y="1456.0" type="line"/>
      <point x="1100.0" y="0.0" type="line"/>
      <point x="908.0" y="0.0" type="line"/>
      <point x="1207.6669120809809" y="1298.0" type="line"/>
      <point x="493.66691208098086" y="1298.0" type="line"/>
      <point x="194.0" y="0.0" type="line"/>
    </contour>
  </outline>
</glyph>
<glyph name="alpha" format="2">
  <advance width="1236"/>
  <unicode hex="03B1"/>
  <anchor x="624.8733370640924" y="1052" name="top"/>
  <outline>
    <contour>
      <point x="352.38263617748873" y="-20.0" type="qcurve" smooth="yes"/>
      <point x="152.38263617748873" y="-20.0"/>
      <point x="-18.35690648484234" y="280.0"/>
      <point x="34.74277747403718" y="510.0" type="qcurve" smooth="yes"/>
      <point x="42.13055959005521" y="542.0" type="line" smooth="yes"/>
      <point x="95.23024354893471" y="772.0"/>
      <point x="404.4907008866037" y="1072.0"/>
      <point x="604.4907008866037" y="1072.0" type="qcurve" smooth="yes"/>
      <point x="811.4907008866037" y="1072.0"/>
      <point x="957.1537163134369" y="776.0"/>
      <point x="900.591009487674" y="531.0" type="qcurve" smooth="yes"/>
      <point x="894.5884365184093" y="505.0" type="line" smooth="yes"/>
      <point x="843.1048298974088" y="282.0"/>
      <point x="552.3826361774887" y="-20.0"/>
    </contour>
    <contour>
      <point x="427.47460122857433" y="132.0" type="qcurve" smooth="yes"/>
      <point x="568.4746012285743" y="132.0"/>
      <point x="792.7273396584493" y="354.0"/>
      <point x="827.1267001361582" y="503.0" type="qcurve" smooth="yes"/>
      <point x="833.591009487674" y="531.0" type="line" smooth="yes"/>
      <point x="873.5312065523965" y="704.0"/>
      <point x="745.3987358355181" y="920.0"/>
      <point x="609.3987358355181" y="920.0" type="qcurve" smooth="yes"/>
      <point x="459.3987358355181" y="920.0"/>
      <point x="269.06947017014534" y="702.0"/>
      <point x="232.1305595900552" y="542.0" type="qcurve" smooth="yes"/>
      <point x="224.7427774740372" y="510.0" type="line" smooth="yes"/>
      <point x="187.8038668939471" y="350.0"/>
      <point x="277.47460122857433" y="132.0"/>
    </contour>
    <contour>
      <point x="901.0739542662332" y="-30.0" type="qcurve" smooth="yes"/>
      <point x="804.0739542662332" y="-30.0"/>
      <point x="710.2360141296548" y="53.0"/>
      <point x="717.4758877132067" y="145.0" type="qcurve"/>
      <point x="701.4758877132067" y="145.0" type="line"/>
      <point x="879.2443948798903" y="915.0" type="line"/>
      <point x="894.2443948798903" y="915.0" type="line"/>
      <point x="933.8733370640923" y="1052.0" type="line"/>
      <point x="1096.8733370640923" y="1052.0" type="line"/>
      <point x="914.4874660748976" y="262.0" type="line" smooth="yes"/>
      <point x="897.1723517404803" y="187.0"/>
      <point x="929.0128648463233" y="130.0"/>
      <point x="979.0128648463233" y="130.0" type="qcurve"/>
      <point x="994.0128648463233" y="130.0"/>
      <point x="1032.628942184202" y="137.0"/>
      <point x="1051.245019522081" y="144.0" type="qcurve"/>
      <point x="1016.1530544709956" y="-8.0" type="line"/>
      <point x="995.0752407508655" y="-17.0"/>
      <point x="935.0739542662332" y="-30.0"/>
    </contour>
  </outline>
</glyph>
<glyph name="zeta" format="2">
  <advance width="816"/>
  <unicode hex="03B6"/>
  <guideline x="708.1826436175388" y="291" angle="103.0" identifier="Hhem4nGbLg"/>
  <guideline x="878.0045212963385" y="823" angle="103.0" identifier="UwRnHAo0ZQ"/>
  <outline>
    <contour>
      <point x="370.6578694883041" y="-348.0" type="line"/>
      <point x="405.89388361795886" y="-295.0"/>
      <point x="459.9807027305152" y="-195.0"/>
      <point x="471.98584866904446" y="-143.0" type="qcurve" smooth="yes"/>
      <point x="485.60707194545273" y="-84.0"/>
      <point x="437.3048224573587" y="-29.0"/>
      <point x="357.92218627986995" y="-9.0" type="qcurve" smooth="yes"/>
      <point x="234.30996839588795" y="23.0" type="line" smooth="yes"/>
      <point x="75.77556423203603" y="64.0"/>
      <point x="-50.82378880562274" y="226.0"/>
      <point x="-18.733110239169463" y="365.0" type="qcurve"/>
      <point x="3.891972491135732" y="463.0"/>
      <point x="115.52606061386712" y="652.0"/>
      <point x="446.48040900954516" y="968.0" type="qcurve" smooth="yes"/>
      <point x="822.5929578147478" y="1328.0" type="line"/>
      <point x="823.0521212277342" y="1304.0" type="line"/>
      <point x="244.0521212277343" y="1304.0" type="line"/>
      <point x="279.1440862788199" y="1456.0" type="line"/>
      <point x="1024.14408627882" y="1456.0" type="line"/>
      <point x="987.8977802721065" y="1299.0" type="line"/>
      <point x="562.5492173372489" y="886.0" type="line" smooth="yes"/>
      <point x="299.4469604091048" y="630.0"/>
      <point x="196.66239078464247" y="475.0"/>
      <point x="176.57685815671846" y="388.0" type="qcurve"/>
      <point x="158.80000744005014" y="311.0"/>
      <point x="225.7131883274938" y="211.0"/>
      <point x="343.5562744026014" y="180.0" type="qcurve" smooth="yes"/>
      <point x="457.63022866883443" y="150.0" type="line" smooth="yes"/>
      <point x="604.6263692149375" y="111.0"/>
      <point x="684.3852091467534" y="6.0"/>
      <point x="663.6070719454527" y="-84.0" type="qcurve" smooth="yes"/>
      <point x="649.0623759045423" y="-147.0"/>
      <point x="588.8186428670934" y="-278.0"/>
      <point x="540.6578694883041" y="-348.0" type="qcurve"/>
    </contour>
  </outline>
</glyph>
<glyph name="Kaisymbol" format="2">
  <advance width="1266"/>
  <unicode hex="03CF"/>
  <outline>
    <contour>
      <point x="2.0" y="0.0" type="line"/>
      <point x="338.1440862788199" y="1456.0" type="line"/>
      <point x="530.1440862788199" y="1456.0" type="line"/>
      <point x="194.0" y="0.0" type="line"/>
    </contour>
    <contour>
      <point x="189.65467187684857" y="397.0" type="line"/>
      <point x="244.370433173607" y="634.0" type="line"/>
      <point x="1178.14408627882" y="1456.0" type="line"/>
      <point x="1410.14408627882" y="1456.0" type="line"/>
      <point x="599.6128797264234" y="752.0" type="line"/>
    </contour>
    <contour>
      <point x="866.1569139248925" y="31.0" type="line"/>
      <point x="497.2276705796701" y="746.0" type="line"/>
      <point x="652.3948763816211" y="881.0" type="line"/>
      <point x="1113.2321546757578" y="14.0" type="line"/>
      <point x="222.78776723591773" y="-590.0" type="line"/>
      <point x="139.72410484674322" y="-456.0" type="line"/>
    </contour>
  </outline>
</glyph>
<glyph name="kaisymbol" format="2">
  <advance width="1043"/>
  <unicode hex="03D7"/>
  <outline>
    <contour>
      <point x="-20.0" y="0.0" type="line"/>
      <point x="222.87333706409242" y="1052.0" type="line"/>
      <point x="408.8733370640924" y="1052.0" type="line"/>
      <point x="166.0" y="0.0" type="line"/>
    </contour>
    <contour>
      <point x="193.35370887338684" y="465.0" type="line"/>
      <point x="226.82959658659354" y="610.0" type="line"/>
      <point x="392.82959658659354" y="610.0" type="line"/>
      <point x="879.8733370640923" y="1052.0" type="line"/>
      <point x="1097.8733370640923" y="1052.0" type="line"/>
      <point x="535.8231641634319" y="545.0" type="line"/>
      <point x="883.0012864846324" y="13.0" type="line"/>
      <point x="44.787767235917755" y="-590.0" type="line"/>
      <point x="-41.81415877100565" y="-454.0" type="line"/>
      <point x="643.4643093515158" y="28.0" type="line"/>
      <point x="361.35370887338684" y="465.0" type="line"/>
    </contour>
  </outline>
</glyph>
<glyph name="Dje" format="2">
  <advance width="1616"/>
  <unicode hex="0402"/>
  <guideline x="544.292619453477" y="625" angle="103.0" identifier="YDADns81zF"/>
  <outline>
    <contour>
      <point x="304.0" y="0.0" type="line"/>
      <point x="622.1363673710259" y="1378.0" type="line"/>
      <point x="814.1363673710259" y="1378.0" type="line"/>
      <point x="496.0" y="0.0" type="line"/>
    </contour>
    <contour>
      <point x="939.0" y="0.0" type="line"/>
      <point x="981.0180107848525" y="182.0" type="line"/>
      <point x="989.0180107848525" y="182.0" type="line" smooth="yes"/>
      <point x="1092.0180107848525" y="182.0"/>
      <point x="1221.4147982932968" y="305.0"/>
      <point x="1244.963353788104" y="407.0" type="qcurve" smooth="yes"/>
      <point x="1248.6572448461131" y="423.0" type="line" smooth="yes"/>
      <point x="1278.2083733101854" y="551.0"/>
      <point x="1154.7607882588898" y="692.0"/>
      <point x="933.7607882588898" y="692.0" type="qcurve" smooth="yes"/>
      <point x="825.5595303972897" y="692.0"/>
      <point x="647.9125562452529" y="671.0"/>
      <point x="549.8334560404904" y="649.0" type="qcurve"/>
      <point x="586.3106302383294" y="807.0" type="line"/>
      <point x="683.3897304430918" y="829.0"/>
      <point x="866.3195334537286" y="850.0"/>
      <point x="983.2379624567286" y="850.0" type="qcurve" smooth="yes"/>
      <point x="1283.2379624567286" y="850.0"/>
      <point x="1487.0617512623514" y="624.0"/>
      <point x="1442.7350585662432" y="432.0" type="qcurve" smooth="yes"/>
      <point x="1437.4250901703554" y="409.0" type="line" smooth="yes"/>
      <point x="1397.2540249145072" y="235.0"/>
      <point x="1144.0" y="0.0"/>
      <point x="947.0" y="0.0" type="qcurve" smooth="yes"/>
    </contour>
    <contour>
      <point x="155.66691208098092" y="1298.0" type="line"/>
      <point x="192.14408627881988" y="1456.0" type="line"/>
      <point x="1320.14408627882" y="1456.0" type="line"/>
      <point x="1283.6669120809809" y="1298.0" type="line"/>
    </contour>
  </outline>
</glyph>
<glyph name="Soft" format="2">
  <advance width="1200"/>
  <unicode hex="042C"/>
  <outline>
    <contour>
      <point x="2.0" y="0.0" type="line"/>
      <point x="338.1440862788199" y="1456.0" type="line"/>
      <point x="530.1440862788199" y="1456.0" type="line"/>
      <point x="230.47717419783896" y="158.0" type="line"/>
      <point x="520.477174197839" y="158.0" type="line" smooth="yes"/>
      <point x="690.477174197839" y="158.0"/>
      <point x="865.032162115808" y="325.0"/>
      <point x="892.7363450508756" y="445.0" type="qcurve" smooth="yes"/>
      <point x="920.4405279859432" y="565.0"/>
      <point x="822.07204313941" y="728.0"/>
      <point x="652.07204313941" y="728.0" type="qcurve" smooth="yes"/>
      <point x="272.07204313940997" y="728.0" type="line"/>
      <point x="308.54921733724893" y="886.0" type="line"/>
      <point x="688.5492173372489" y="886.0" type="line" smooth="yes"/>
      <point x="928.549217337249" y="886.0"/>
      <point x="1130.9099832759882" y="645.0"/>
      <point x="1084.7363450508756" y="445.0" type="qcurve" smooth="yes"/>
      <point x="1038.562706825763" y="245.0"/>
      <point x="724.0" y="0.0"/>
      <point x="484.0" y="0.0" type="qcurve" smooth="yes"/>
    </contour>
  </outline>
</glyph>
<glyph name="sha" format="2">
  <advance width="1674"/>
  <unicode hex="0448"/>
  <anchor x="1262.0" y="0" name="cy_descender"/>
  <outline>
    <contour>
      <point x="-20.0" y="0.0" type="line"/>
      <point x="222.87333706409242" y="1052.0" type="line"/>
      <point x="408.8733370640924" y="1052.0" type="line"/>
      <point x="199.47588771320665" y="145.0" type="line"/>
      <point x="609.4758877132067" y="145.0" type="line"/>
      <point x="818.8733370640924" y="1052.0" type="line"/>
      <point x="1004.8733370640923" y="1052.0" type="line"/>
      <point x="795.4758877132067" y="145.0" type="line"/>
      <point x="1205.4758877132067" y="145.0" type="line"/>
      <point x="1414.8733370640923" y="1052.0" type="line"/>
      <point x="1600.8733370640923" y="1052.0" type="line"/>
      <point x="1358.0" y="0.0" type="line"/>
    </contour>
  </outline>
</glyph>
<glyph name="Shha" format="2">
  <advance width="1388"/>
  <unicode hex="04BA"/>
  <outline>
    <contour>
      <point x="985.8881130372388" y="424.0" type="line" smooth="yes"/>
      <point x="1026.982651057589" y="602.0"/>
      <point x="891.6868339926566" y="722.0"/>
      <point x="693.6868339926566" y="722.0" type="qcurve" smooth="yes"/>
      <point x="574.9635781786566" y="722.0"/>
      <point x="359.8359474275949" y="701.9532278466"/>
      <point x="255.2212381565085" y="681.0" type="qcurve"/>
      <point x="291.69841235434745" y="839.0" type="line"/>
      <point x="430.4731875069798" y="860.9518608394"/>
      <point x="620.4449070668956" y="880.0"/>
      <point x="745.1640081904956" y="880.0" type="qcurve" smooth="yes"/>
      <point x="1056.1640081904955" y="880.0"/>
      <point x="1229.8334560404905" y="649.0"/>
      <point x="1177.195508463862" y="421.0" type="qcurve" smooth="yes"/>
      <point x="1080.0" y="0.0" type="line"/>
      <point x="888.0" y="0.0" type="line"/>
    </contour>
    <contour>
      <point x="2.0" y="0.0" type="line"/>
      <point x="338.1440862788199" y="1456.0" type="line"/>
      <point x="530.1440862788199" y="1456.0" type="line"/>
      <point x="194.0" y="0.0" type="line"/>
    </contour>
  </outline>
</glyph>
<glyph name="emdash" format="2">
  <advance width="2048"/>
  <unicode hex="2014"/>
  <outline>
    <contour>
      <point x="214.82187767879958" y="532.0" type="line"/>
      <point x="253.60773378789418" y="700.0" type="line"/>
      <point x="1781.6077337878942" y="700.0" type="line"/>
      <point x="1742.8218776787996" y="532.0" type="line"/>
    </contour>
  </outline>
</glyph>
<glyph name="Euro" format="2">
  <advance width="1024"/>
  <unicode hex="20AC"/>
  <outline>
    <contour>
      <point x="863.8669046409309" y="987.0" type="line"/>
      <point x="829.9279940608407" y="827.0" type="line"/>
      <point x="44.92799406084069" y="827.0" type="line"/>
      <point x="81.86690464093078" y="987.0" type="line"/>
    </contour>
    <contour>
      <point x="791.6038743339973" y="661.0" type="line"/>
      <point x="754.8958319450327" y="502.0" type="line"/>
      <point x="-30.104168054967317" y="502.0" type="line"/>
      <point x="6.603874333997226" y="661.0" type="line"/>
    </contour>
    <contour>
      <point x="160.59229597230632" y="544.0" type="qcurve" smooth="yes"/>
      <point x="243.47397658638351" y="903.0" type="line" smooth="yes"/>
      <point x="308.1170701015412" y="1183.0"/>
      <point x="611.6083956303357" y="1484.0"/>
      <point x="828.6083956303357" y="1484.0" type="qcurve" smooth="yes"/>
      <point x="940.6083956303357" y="1484.0"/>
      <point x="1111.062413104793" y="1408.0"/>
      <point x="1158.670771534878" y="1337.0" type="qcurve"/>
      <point x="1011.4270384974291" y="1206.0" type="line"/>
      <point x="971.0482617738373" y="1265.0"/>
      <point x="864.5929578147479" y="1328.0"/>
      <point x="806.5929578147478" y="1328.0" type="qcurve" smooth="yes"/>
      <point x="675.5929578147478" y="1328.0"/>
      <point x="485.03282395824954" y="1109.0"/>
      <point x="438.1665811597602" y="906.0" type="qcurve" smooth="yes"/>
      <point x="353.8996913989297" y="541.0" type="line" smooth="yes"/>
      <point x="307.95692136494256" y="342.0"/>
      <point x="409.5511284640721" y="128.0"/>
      <point x="550.5511284640721" y="128.0" type="qcurve" smooth="yes"/>
      <point x="605.5511284640721" y="128.0"/>
      <point x="743.1723517404803" y="187.0"/>
      <point x="815.8701022523862" y="242.0" type="qcurve"/>
      <point x="892.089392081821" y="126.0" type="line"/>
      <point x="813.7742777474037" y="51.0"/>
      <point x="601.0739542662332" y="-30.0"/>
      <point x="481.07395426623316" y="-30.0" type="qcurve" smooth="yes"/>
      <point x="263.0739542662331" y="-30.0"/>
      <point x="96.64180703052534" y="267.0"/>
    </contour>
  </outline>
</glyph>
<glyph name="uni20AD" format="2">
  <advance width="1041"/>
  <unicode hex="20AD"/>
  <outline>
    <contour>
      <point x="-38.0" y="0.0" type="line"/>
      <point x="298.1440862788199" y="1456.0" type="line"/>
      <point x="485.14408627881994" y="1456.0" type="line"/>
      <point x="149.0" y="0.0" type="line"/>
    </contour>
    <contour>
      <point x="677.0" y="0.0" type="line"/>
      <point x="440.07718907793924" y="780.0" type="line"/>
      <point x="589.5530767911459" y="925.0" type="line"/>
      <point x="893.0" y="0.0" type="line"/>
    </contour>
    <contour>
      <point x="145.4990444365884" y="379.0" type="line"/>
      <point x="207.6025878493649" y="648.0" type="line"/>
      <point x="1003.1440862788199" y="1456.0" type="line"/>
      <point x="1205.14408627882" y="1456.0" type="line"/>
    </contour>
    <contour>
      <point x="-24.396125666002774" y="661.0" type="line"/>
      <point x="9.772366620580556" y="809.0" type="line"/>
      <point x="244.77236662058056" y="809.0" type="line"/>
      <point x="236.2302435489347" y="772.0" type="line"/>
      <point x="565.2302435489347" y="772.0" type="line"/>
      <point x="573.7723666205806" y="809.0" type="line"/>
      <point x="991.7723666205807" y="809.0" type="line"/>
      <point x="957.6038743339973" y="661.0" type="line"/>
      <point x="539.6038743339973" y="661.0" type="line"/>
      <point x="548.145997405643" y="698.0" type="line"/>
      <point x="219.14599740564302" y="698.0" type="line"/>
      <point x="210.60387433399723" y="661.0" type="line"/>
    </contour>
  </outline>
</glyph>
<glyph name="hryvnia" format="2">
  <advance width="1024"/>
  <unicode hex="20B4"/>
  <outline>
    <contour>
      <point x="-12.890024164061913" y="334.0" type="qcurve" smooth="yes"/>
      <point x="15.737631535507887" y="458.0"/>
      <point x="205.2186651872438" y="655.0"/>
      <point x="472.0019483270738" y="797.0" type="qcurve" smooth="yes"/>
      <point x="720.2456813645226" y="928.0"/>
      <point x="851.3350734463436" y="1054.0"/>
      <point x="872.5749470298954" y="1146.0" type="qcurve" smooth="yes"/>
      <point x="889.6591931731871" y="1220.0"/>
      <point x="790.5929578147478" y="1328.0"/>
      <point x="674.5929578147478" y="1328.0" type="qcurve" smooth="yes"/>
      <point x="545.5929578147478" y="1328.0"/>
      <point x="397.96787508444265" y="1230.0"/>
      <point x="382.5775199991599" y="1172.0" type="qcurve" smooth="yes"/>
      <point x="375.5749470298954" y="1146.0" type="line"/>
      <point x="203.57494702989533" y="1146.0" type="line"/>
      <point x="210.57751999915996" y="1172.0" type="line" smooth="yes"/>
      <point x="251.90035324137114" y="1325.0"/>
      <point x="518.0701320125868" y="1486.0"/>
      <point x="714.0701320125868" y="1486.0" type="qcurve" smooth="yes"/>
      <point x="912.0701320125868" y="1486.0"/>
      <point x="1082.2829894188599" y="1305.0"/>
      <point x="1043.2662651186397" y="1136.0" type="qcurve" smooth="yes"/>
      <point x="1021.7955233439623" y="1043.0"/>
      <point x="835.0861944703655" y="871.0"/>
      <point x="508.37686559676865" y="699.0" type="qcurve" smooth="yes"/>
      <point x="310.1357055285845" y="594.0"/>
      <point x="187.65981781537783" y="449.0"/>
      <point x="164.34213051169598" y="348.0" type="qcurve" smooth="yes"/>
      <point x="140.56270682576297" y="245.0"/>
      <point x="253.55112846407206" y="128.0"/>
      <point x="384.5511284640721" y="128.0" type="qcurve" smooth="yes"/>
      <point x="518.5511284640721" y="128.0"/>
      <point x="692.6392340612607" y="241.0"/>
      <point x="714.8765346755479" y="307.0" type="qcurve" smooth="yes"/>
      <point x="720.2630303069336" y="326.0" type="line"/>
      <point x="897.2630303069336" y="326.0" type="line"/>
      <point x="891.8765346755479" y="307.0" type="line" smooth="yes"/>
      <point x="841.0141513309555" y="143.0"/>
      <point x="546.0739542662332" y="-30.0"/>
      <point x="348.07395426623316" y="-30.0" type="qcurve" smooth="yes"/>
      <point x="134.0739542662331" y="-30.0"/>
      <point x="-53.29195761103546" y="159.0"/>
    </contour>
    <contour>
      <point x="13.851466825342953" y="831.0" type="line"/>
      <point x="47.3273545385496" y="976.0" type="line"/>
      <point x="1090.3273545385496" y="976.0" type="line"/>
      <point x="1056.8514668253429" y="831.0" type="line"/>
    </contour>
    <contour>
      <point x="-60.02635433483725" y="511.0" type="line"/>
      <point x="-26.55046662163059" y="656.0" type="line"/>
      <point x="1016.4495333783693" y="656.0" type="line"/>
      <point x="982.9736456651628" y="511.0" type="line"/>
    </contour>
  </outline>
</glyph>
<glyph name="brevecombstack.case" format="2">
  <anchor x="186.61354156886495" y="1536" name="_top"/>
  <anchor x="272.95824504982556" y="1910" name="top"/>
  <outline>
    <contour>
      <point x="534.9582450498256" y="1910.0" type="qcurve"/>
      <point x="622.7209444355384" y="1844.0" type="line"/>
      <point x="565.6354118076144" y="1757.0"/>
      <point x="340.69778771215664" y="1610.0"/>
      <point x="203.69778771215664" y="1610.0" type="qcurve" smooth="yes"/>
      <point x="81.69778771215664" y="1610.0"/>
      <point x="-83.13500648589235" y="1745.0"/>
      <point x="-106.04818737333608" y="1845.0" type="qcurve"/>
      <point x="18.958245049825564" y="1910.0" type="line"/>
      <point x="45.491362729045136" y="1856.0"/>
      <point x="155.40583010112113" y="1769.0"/>
      <point x="240.40583010112113" y="1769.0" type="qcurve" smooth="yes"/>
      <point x="332.4058301011211" y="1769.0"/>
      <point x="482.5678899645429" y="1852.0"/>
    </contour>
  </outline>
</glyph>
<glyph name="breveinvertedcomb.case" format="2">
  <anchor x="168.14408627881988" y="1456" name="_top"/>
  <anchor x="278.9608180190902" y="1936" name="top"/>
  <outline>
    <contour>
      <point x="-81.610894199099" y="1600.0" type="qcurve"/>
      <point x="-165.68098901143514" y="1669.0" type="line"/>
      <point x="-91.36201522312098" y="1783.0"/>
      <point x="150.9608180190902" y="1936.0"/>
      <point x="278.9608180190902" y="1936.0" type="qcurve"/>
      <point x="406.9608180190902" y="1936.0"/>
      <point x="578.637984776879" y="1783.0"/>
      <point x="600.3190109885649" y="1669.0" type="qcurve"/>
      <point x="484.389105800901" y="1600.0" type="line"/>
      <point x="455.9338018418115" y="1663.0"/>
      <point x="334.94409371887" y="1767.0"/>
      <point x="239.94409371887002" y="1767.0" type="qcurve"/>
      <point x="144.94409371887002" y="1767.0"/>
      <point x="-24.066198158188513" y="1663.0"/>
    </contour>
  </outline>
</glyph>
<glyph name="dblgravecomb.case" format="2">
  <anchor x="168.14408627881988" y="1456" name="_top"/>
  <anchor x="287.73380928186157" y="1974" name="top"/>
  <outline>
    <contour>
      <point x="57" y="1600" type="line"/>
      <point x="-180" y="1876" type="line"/>
      <point x="-23" y="1974" type="line"/>
      <point x="169" y="1675" type="line"/>
    </contour>
    <contour>
      <point x="357" y="1600" type="line"/>
      <point x="120" y="1876" type="line"/>
      <point x="277" y="1974" type="line"/>
      <point x="469" y="1675" type="line"/>
    </contour>
  </outline>
</glyph>
<glyph name="dieresiscomb.case" format="2">
  <anchor x="168.14408627881988" y="1456" name="_top"/>
  <anchor x="270.8804313296955" y="1901" name="top"/>
  <outline>
    <contour>
      <point x="-128" y="1787" type="qcurve" smooth="yes"/>
      <point x="-128" y="1842"/>
      <point x="-68" y="1901"/>
      <point x="-12" y="1901" type="qcurve" smooth="yes"/>
      <point x="41" y="1901"/>
      <point x="104" y="1838"/>
      <point x="104" y="1787" type="qcurve" smooth="yes"/>
      <point x="104" y="1733"/>
      <point x="45" y="1674"/>
      <point x="-12" y="1674" type="qcurve" smooth="yes"/>
      <point x="-65" y="1674"/>
      <point x="-128" y="1736"/>
    </contour>
    <contour>
      <point x="332" y="1787" type="qcurve" smooth="yes"/>
      <point x="332" y="1842"/>
      <point x="392" y="1901"/>
      <point x="448" y="1901" type="qcurve" smooth="yes"/>
      <point x="501" y="1901"/>
      <point x="564" y="1838"/>
      <point x="564" y="1787" type="qcurve" smooth="yes"/>
      <point x="564" y="1733"/>
      <point x="505" y="1674"/>
      <point x="448" y="1674" type="qcurve" smooth="yes"/>
      <point x="395" y="1674"/>
      <point x="332" y="1736"/>
    </contour>
  </outline>
</glyph>
<glyph name="ringcomb-stack.case" format="2">
  <anchor x="168.14408627881988" y="1456" name="_top"/>
  <anchor x="286.81033651735936" y="1970" name="top"/>
  <outline>
    <contour>
      <point x="-33" y="1787" type="qcurve" smooth="yes"/>
      <point x="-33" y="1882"/>
      <point x="95" y="2004"/>
      <point x="194" y="2004" type="qcurve" smooth="yes"/>
      <point x="293" y="2004"/>
      <point x="421" y="1882"/>
      <point x="421" y="1787" type="qcurve" smooth="yes"/>
      <point x="421" y="1692"/>
      <point x="293" y="1570"/>
      <point x="194" y="1570" type="qcurve"/>
      <point x="95" y="1570"/>
      <point x="-33" y="1692"/>
    </contour>
    <contour>
      <point x="90" y="1787" type="qcurve" smooth="yes"/>
      <point x="90" y="1740"/>
      <point x="146" y="1683"/>
      <point x="194" y="1683" type="qcurve" smooth="yes"/>
      <point x="245" y="1683"/>
      <point x="298" y="1737"/>
      <point x="298" y="1787" type="qcurve" smooth="yes"/>
      <point x="298" y="1834"/>
      <point x="242" y="1891"/>
      <point x="194" y="1891" type="qcurve" smooth="yes"/>
      <point x="143" y="1891"/>
      <point x="90" y="1838"/>
    </contour>
  </outline>
</glyph>
<glyph name="tildecombstack.case" format="2">
  <anchor x="186.61354156886495" y="1536" name="_top"/>
  <anchor x="275.7286633433323" y="1922" name="top"/>
  <outline>
    <contour>
      <point x="-96.97809256099993" y="1776.0" type="line"/>
      <point x="-40.355582799959336" y="1848.0"/>
      <point x="100.7286633433323" y="1922.0"/>
      <point x="167.7286633433323" y="1922.0" type="qcurve" smooth="yes"/>
      <point x="202.7286633433323" y="1922.0"/>
      <point x="270.64956313856993" y="1900.0"/>
      <point x="300.6469901693053" y="1874.0" type="qcurve" smooth="yes"/>
      <point x="325.56788996454287" y="1852.0"/>
      <point x="383.48750327514813" y="1817.0"/>
      <point x="415.48750327514813" y="1817.0" type="qcurve" smooth="yes"/>
      <point x="455.48750327514813" y="1817.0"/>
      <point x="511.72223092017066" y="1857.0"/>
      <point x="541.7260903740677" y="1896.0" type="qcurve"/>
      <point x="614.7170849816414" y="1805.0" type="line"/>
      <point x="565.6328388383497" y="1731.0"/>
      <point x="434.548592695058" y="1657.0"/>
      <point x="369.548592695058" y="1657.0" type="qcurve" smooth="yes"/>
      <point x="320.54859269505806" y="1657.0"/>
      <point x="246.6289793844528" y="1692.0"/>
      <point x="221.24634320696407" y="1712.0" type="qcurve" smooth="yes"/>
      <point x="195.09457522060086" y="1733.0"/>
      <point x="139.6366982922467" y="1770.0"/>
      <point x="115.6366982922467" y="1770.0" type="qcurve" smooth="yes"/>
      <point x="79.6366982922467" y="1770.0"/>
      <point x="5.938947780340754" y="1715.0"/>
      <point x="-19.987097953426144" y="1685.0" type="qcurve"/>
    </contour>
  </outline>
</glyph>
<glyph name="u-stroke" format="2">
  <advance width="942"/>
  <outline>
    <contour>
      <point x="-63.475887713206646" y="-145.0" type="line"/>
      <point x="-30.0" y="0.0" type="line"/>
      <point x="636.0" y="0.0" type="line"/>
      <point x="602.5241122867933" y="-145.0" type="line"/>
    </contour>
  </outline>
</glyph>
